# Blender v3.2.0 OBJ File: 'dodai.blend'
# www.blender.org
mtllib dodai.mtl
o 土台_Cylinder
v 0.616234 0.166090 -26.375471
v 0.616234 -0.255757 -26.375471
v 6.611078 0.166090 -25.944780
v 6.611078 -0.255757 -25.944780
v 12.375545 0.166090 -24.669260
v 12.375545 -0.255757 -24.669260
v 17.688107 0.166090 -22.597927
v 17.688107 -0.255757 -22.597927
v 22.344604 0.166090 -19.810381
v 22.344604 -0.255757 -19.810381
v 26.166096 0.166090 -16.413746
v 26.166096 -0.255757 -16.413746
v 29.005718 0.166090 -12.538555
v 29.005718 -0.255757 -12.538555
v 30.754351 0.166090 -8.333727
v 30.754351 -0.255757 -8.333727
v 31.344791 0.166090 -3.960850
v 31.344791 -0.255757 -3.960850
v 30.754351 0.166090 0.412024
v 30.754351 -0.255757 0.412024
v 29.005720 0.166090 4.616851
v 29.005720 -0.255757 4.616851
v 26.166098 0.166090 8.492043
v 26.166098 -0.255757 8.492043
v 22.344604 0.166090 11.888678
v 22.344604 -0.255757 11.888678
v 17.688105 0.166090 14.676224
v 17.688105 -0.255757 14.676224
v 12.375546 0.166090 16.747557
v 12.375546 -0.255757 16.747557
v 6.611078 0.166090 18.023077
v 6.611078 -0.255757 18.023077
v 0.616231 0.166090 18.453768
v 0.616231 -0.255757 18.453768
v -5.378608 0.166090 18.023077
v -5.378608 -0.255757 18.023077
v -11.143076 0.166090 16.747557
v -11.143076 -0.255757 16.747557
v -16.455641 0.166090 14.676222
v -16.455641 -0.255757 14.676222
v -21.112135 0.166090 11.888680
v -21.112135 -0.255757 11.888680
v -24.933624 0.166090 8.492048
v -24.933624 -0.255757 8.492048
v -27.773251 0.166090 4.616855
v -27.773251 -0.255757 4.616855
v -29.521883 0.166090 0.412025
v -29.521883 -0.255757 0.412025
v -30.112324 0.166090 -3.960851
v -30.112324 -0.255757 -3.960851
v -29.521883 0.166090 -8.333729
v -29.521883 -0.255757 -8.333729
v -27.773249 0.166090 -12.538559
v -27.773249 -0.255757 -12.538559
v -24.933632 0.166090 -16.413742
v -24.933632 -0.255757 -16.413742
v -21.112141 0.166090 -19.810379
v -21.112141 -0.255757 -19.810379
v -16.455641 0.166090 -22.597927
v -16.455641 -0.255757 -22.597927
v -11.143076 0.166090 -24.669260
v -11.143076 -0.255757 -24.669260
v -5.378608 0.166090 -25.944780
v -5.378608 -0.255757 -25.944780
vt 1.000000 0.500000
vt 0.968750 0.500000
vt 0.968750 1.000000
vt 1.000000 1.000000
vt 0.937500 0.500000
vt 0.937500 1.000000
vt 0.906250 0.500000
vt 0.906250 1.000000
vt 0.875000 0.500000
vt 0.875000 1.000000
vt 0.843750 0.500000
vt 0.843750 1.000000
vt 0.812500 0.500000
vt 0.812500 1.000000
vt 0.781250 0.500000
vt 0.781250 1.000000
vt 0.750000 0.500000
vt 0.750000 1.000000
vt 0.718750 0.500000
vt 0.718750 1.000000
vt 0.687500 0.500000
vt 0.687500 1.000000
vt 0.656250 0.500000
vt 0.656250 1.000000
vt 0.625000 0.500000
vt 0.625000 1.000000
vt 0.593750 0.500000
vt 0.593750 1.000000
vt 0.562500 0.500000
vt 0.562500 1.000000
vt 0.531250 0.500000
vt 0.531250 1.000000
vt 0.500000 0.500000
vt 0.500000 1.000000
vt 0.468750 0.500000
vt 0.468750 1.000000
vt 0.437500 0.500000
vt 0.437500 1.000000
vt 0.406250 0.500000
vt 0.406250 1.000000
vt 0.375000 0.500000
vt 0.375000 1.000000
vt 0.343750 0.500000
vt 0.343750 1.000000
vt 0.312500 0.500000
vt 0.312500 1.000000
vt 0.281250 0.500000
vt 0.281250 1.000000
vt 0.250000 0.500000
vt 0.250000 1.000000
vt 0.218750 0.500000
vt 0.218750 1.000000
vt 0.187500 0.500000
vt 0.187500 1.000000
vt 0.156250 0.500000
vt 0.156250 1.000000
vt 0.125000 0.500000
vt 0.125000 1.000000
vt 0.093750 0.500000
vt 0.093750 1.000000
vt 0.062500 0.500000
vt 0.062500 1.000000
vt 0.296822 0.485388
vt 0.341844 0.471731
vt 0.383337 0.449553
vt 0.419706 0.419706
vt 0.449553 0.383337
vt 0.471731 0.341844
vt 0.485388 0.296822
vt 0.490000 0.250000
vt 0.485388 0.203178
vt 0.471731 0.158156
vt 0.449553 0.116663
vt 0.419706 0.080294
vt 0.383337 0.050447
vt 0.341844 0.028269
vt 0.296822 0.014612
vt 0.250000 0.010000
vt 0.203178 0.014612
vt 0.158156 0.028269
vt 0.116663 0.050447
vt 0.080294 0.080294
vt 0.050447 0.116663
vt 0.028269 0.158156
vt 0.014612 0.203178
vt 0.010000 0.250000
vt 0.014612 0.296822
vt 0.028269 0.341844
vt 0.050447 0.383337
vt 0.080294 0.419706
vt 0.116663 0.449553
vt 0.158156 0.471731
vt 0.203178 0.485388
vt 0.250000 0.490000
vt 0.031250 0.500000
vt 0.031250 1.000000
vt 0.000000 0.500000
vt 0.000000 1.000000
vt 0.750000 0.490000
vt 0.703178 0.485388
vt 0.658156 0.471731
vt 0.616663 0.449553
vt 0.580294 0.419706
vt 0.550447 0.383337
vt 0.528269 0.341844
vt 0.514612 0.296822
vt 0.510000 0.250000
vt 0.514612 0.203178
vt 0.528269 0.158156
vt 0.550447 0.116663
vt 0.580294 0.080294
vt 0.616663 0.050447
vt 0.658156 0.028269
vt 0.703178 0.014612
vt 0.750000 0.010000
vt 0.796822 0.014612
vt 0.841844 0.028269
vt 0.883337 0.050447
vt 0.919706 0.080294
vt 0.949553 0.116663
vt 0.971731 0.158156
vt 0.985388 0.203178
vt 0.990000 0.250000
vt 0.985388 0.296822
vt 0.971731 0.341844
vt 0.949553 0.383337
vt 0.919706 0.419706
vt 0.883337 0.449553
vt 0.841844 0.471731
vt 0.796822 0.485388
vn 0.0717 0.0000 -0.9974
vn 0.2160 0.0000 -0.9764
vn 0.3633 0.0000 -0.9317
vn 0.5136 0.0000 -0.8580
vn 0.6643 0.0000 -0.7474
vn 0.8066 0.0000 -0.5911
vn 0.9233 0.0000 -0.3840
vn 0.9910 0.0000 -0.1338
vn 0.9910 0.0000 0.1338
vn 0.9233 0.0000 0.3840
vn 0.8066 0.0000 0.5911
vn 0.6643 0.0000 0.7474
vn 0.5136 0.0000 0.8580
vn 0.3633 0.0000 0.9317
vn 0.2160 0.0000 0.9764
vn 0.0717 0.0000 0.9974
vn -0.0717 0.0000 0.9974
vn -0.2160 0.0000 0.9764
vn -0.3633 0.0000 0.9317
vn -0.5136 0.0000 0.8580
vn -0.6643 0.0000 0.7474
vn -0.8066 0.0000 0.5911
vn -0.9233 0.0000 0.3840
vn -0.9910 0.0000 0.1338
vn -0.9910 0.0000 -0.1338
vn -0.9233 0.0000 -0.3840
vn -0.8066 0.0000 -0.5911
vn -0.6643 0.0000 -0.7474
vn -0.5136 0.0000 -0.8580
vn -0.3633 0.0000 -0.9317
vn 0.0000 -1.0000 0.0000
vn -0.2160 0.0000 -0.9764
vn -0.0717 0.0000 -0.9974
vn 0.0000 1.0000 0.0000
usemtl マテリアル
s off
f 1/1/1 3/2/1 4/3/1 2/4/1
f 3/2/2 5/5/2 6/6/2 4/3/2
f 5/5/3 7/7/3 8/8/3 6/6/3
f 7/7/4 9/9/4 10/10/4 8/8/4
f 9/9/5 11/11/5 12/12/5 10/10/5
f 11/11/6 13/13/6 14/14/6 12/12/6
f 13/13/7 15/15/7 16/16/7 14/14/7
f 15/15/8 17/17/8 18/18/8 16/16/8
f 17/17/9 19/19/9 20/20/9 18/18/9
f 19/19/10 21/21/10 22/22/10 20/20/10
f 21/21/11 23/23/11 24/24/11 22/22/11
f 23/23/12 25/25/12 26/26/12 24/24/12
f 25/25/13 27/27/13 28/28/13 26/26/13
f 27/27/14 29/29/14 30/30/14 28/28/14
f 29/29/15 31/31/15 32/32/15 30/30/15
f 31/31/16 33/33/16 34/34/16 32/32/16
f 33/33/17 35/35/17 36/36/17 34/34/17
f 35/35/18 37/37/18 38/38/18 36/36/18
f 37/37/19 39/39/19 40/40/19 38/38/19
f 39/39/20 41/41/20 42/42/20 40/40/20
f 41/41/21 43/43/21 44/44/21 42/42/21
f 43/43/22 45/45/22 46/46/22 44/44/22
f 45/45/23 47/47/23 48/48/23 46/46/23
f 47/47/24 49/49/24 50/50/24 48/48/24
f 49/49/25 51/51/25 52/52/25 50/50/25
f 51/51/26 53/53/26 54/54/26 52/52/26
f 53/53/27 55/55/27 56/56/27 54/54/27
f 55/55/28 57/57/28 58/58/28 56/56/28
f 57/57/29 59/59/29 60/60/29 58/58/29
f 59/59/30 61/61/30 62/62/30 60/60/30
f 4/63/31 6/64/31 8/65/31 10/66/31 12/67/31 14/68/31 16/69/31 18/70/31 20/71/31 22/72/31 24/73/31 26/74/31 28/75/31 30/76/31 32/77/31 34/78/31 36/79/31 38/80/31 40/81/31 42/82/31 44/83/31 46/84/31 48/85/31 50/86/31 52/87/31 54/88/31 56/89/31 58/90/31 60/91/31 62/92/31 64/93/31 2/94/31
f 61/61/32 63/95/32 64/96/32 62/62/32
f 63/95/33 1/97/33 2/98/33 64/96/33
f 1/99/34 63/100/34 61/101/34 59/102/34 57/103/34 55/104/34 53/105/34 51/106/34 49/107/34 47/108/34 45/109/34 43/110/34 41/111/34 39/112/34 37/113/34 35/114/34 33/115/34 31/116/34 29/117/34 27/118/34 25/119/34 23/120/34 21/121/34 19/122/34 17/123/34 15/124/34 13/125/34 11/126/34 9/127/34 7/128/34 5/129/34 3/130/34
